<?xml version="1.0" encoding="utf-8" ?>
<svg xmlns="http://www.w3.org/2000/svg" xmlns:xlink="http://www.w3.org/1999/xlink" width="689" height="689">
	<path fill="transparent" transform="scale(0.672852 0.672852)" d="M0 0L1024 0L1024 1024L0 1024L0 0Z"/>
	<path fill="#19426F" transform="scale(0.672852 0.672852)" d="M237.422 492.431C241.959 495.052 246.848 497.91 251.684 499.916L252.523 500.256L252.264 500.993L252.735 501.147L253.241 500.76L254.109 501.473C252.953 501.949 252.364 501.882 251.125 501.894L233.451 501.96C234.369 498.528 235.797 495.564 237.422 492.431Z"/>
	<path fill="#19426F" transform="scale(0.672852 0.672852)" d="M217.294 479.614C220.047 480.947 222.576 482.668 225.147 484.317C222.962 488.445 218.449 499.003 214.913 501.468C211.951 501.9 209.011 501.863 206.025 501.863C210.267 494.759 213.685 487.056 217.294 479.614Z"/>
	<path transform="scale(0.672852 0.672852)" d="M640.575 563.142L648.455 563.12L648.426 619.491L640.667 619.48Q640.478 591.31 640.575 563.142Z"/>
	<path transform="scale(0.672852 0.672852)" d="M258.641 562.93L266.44 562.869L266.516 612.995L291.803 612.901L291.776 619.611Q275.13 619.642 258.486 619.887L258.641 562.93Z"/>
	<path transform="scale(0.672852 0.672852)" d="M707.631 563.458L715.594 563.455L715.57 613.083L742.4 613.101L742.393 619.494C730.764 619.637 719.118 619.526 707.488 619.537L707.631 563.458Z"/>
	<path transform="scale(0.672852 0.672852)" d="M472.539 563.069L480.311 563.099C480.466 579.611 480.273 596.137 480.219 612.651C489.426 612.724 498.642 612.611 507.85 612.587L507.895 619.568C496.069 619.977 484.108 619.626 472.267 619.627L472.539 563.069Z"/>
	<path transform="scale(0.672852 0.672852)" d="M554.836 562.182C560.632 562.123 565.26 562.978 570.478 565.579L570.404 572.106C565.428 570.106 560.861 568.139 555.318 568.669C552.206 568.967 548.499 570.231 546.554 572.822C545.449 574.293 545.128 576.382 545.525 578.161C547.029 584.897 560.128 586.989 565.392 590.55C568.958 592.963 571.796 596.467 572.499 600.808C573.237 605.363 572.112 609.195 569.502 612.889C566.087 617.723 562.074 619.395 556.447 620.356C550.365 620.545 545.234 619.875 539.55 617.65C539.476 615.552 538.963 611.629 540.204 609.977C540.845 610.66 541.513 611.378 542.275 611.927C545.153 614.002 550.098 614.328 553.493 613.904C556.84 613.486 560.045 612.092 562.095 609.324C563.396 607.568 564.346 605.082 563.916 602.879C562.317 594.684 550.167 593.025 544.346 588.892C541.199 586.657 538.6 583.725 538.081 579.768C537.562 575.805 539.036 570.856 541.565 567.775C544.918 563.693 549.877 562.749 554.836 562.182Z"/>
	<path transform="scale(0.672852 0.672852)" d="M662.424 563.122L695.495 563.256L695.442 569.497C687.117 569.627 678.777 569.531 670.45 569.537L670.473 586.917L692.695 586.952C692.991 589.057 692.918 591.254 692.959 593.379C685.811 593.355 677.897 592.651 670.848 593.642C670.159 594.919 670.372 596.462 670.383 597.875L670.38 612.96L697.232 612.939L697.249 619.474L662.452 619.426L662.424 563.122Z"/>
	<path transform="scale(0.672852 0.672852)" d="M301.124 563.031Q318.694 563.01 336.261 563.302L336.286 569.3L308.991 569.367L308.981 586.584Q321.28 586.577 333.577 586.764C333.669 588.854 333.611 590.972 333.625 593.065C325.713 593.022 317.383 592.446 309.525 593.226C308.798 594.364 309.002 595.545 308.955 596.875L308.968 612.983L338.333 612.801L338.275 619.874C325.872 619.967 313.457 619.791 301.054 619.714C300.825 600.832 301.092 581.917 301.124 563.031Z"/>
	<path transform="scale(0.672852 0.672852)" d="M618.101 562.991L626.032 562.965C626.054 569.721 626.802 617.851 625.875 619.286L624.625 619.522L618.071 619.49L618.028 593.796C608.898 593.304 599.629 593.591 590.482 593.561L590.488 619.868L582.576 619.855L582.707 563.215L590.509 563.207L590.547 586.87L618.1 586.842L618.101 562.991Z"/>
	<path transform="scale(0.672852 0.672852)" d="M374.215 562.179C382.272 561.667 388.641 562.396 395.854 566.21C395.876 568.669 395.782 571.144 395.743 573.603C394.192 572.671 392.646 571.682 391.018 570.888C384.207 567.569 374.72 567.504 367.682 570.242C362.118 572.407 357.782 576.484 355.495 582.023Q355.259 582.597 355.053 583.182Q354.847 583.768 354.67 584.363Q354.494 584.958 354.348 585.561Q354.202 586.164 354.087 586.774Q353.971 587.384 353.887 587.999Q353.803 588.614 353.75 589.232Q353.696 589.85 353.675 590.471Q353.653 591.091 353.663 591.711Q353.672 592.332 353.713 592.951Q353.754 593.57 353.827 594.187Q353.899 594.803 354.003 595.415Q354.106 596.027 354.24 596.633Q354.375 597.239 354.539 597.837Q354.704 598.436 354.899 599.025Q355.094 599.614 355.318 600.193Q355.543 600.771 355.796 601.338C358.263 606.754 362.716 610.935 368.368 612.852C375.739 615.352 382.941 613.891 389.672 610.454L389.526 596.73C385.321 596.611 379.177 597.722 375.306 596.066L374.802 594.484C374.88 593.042 374.798 591.595 375.549 590.315C382.601 589.329 390.59 590.12 397.743 590.192C397.912 598.209 397.446 606.215 397.806 614.235C394.235 617.152 390.082 618.868 385.589 619.749C376.144 621.602 364.885 620.753 356.828 615.073C350.398 610.54 346.276 602.969 345.202 595.238Q345.102 594.532 345.038 593.822Q344.974 593.111 344.946 592.399Q344.918 591.686 344.926 590.973Q344.935 590.26 344.979 589.548Q345.024 588.836 345.105 588.128Q345.185 587.419 345.302 586.715Q345.419 586.012 345.571 585.315Q345.724 584.618 345.911 583.93Q346.099 583.242 346.321 582.565Q346.544 581.887 346.8 581.222Q347.057 580.556 347.347 579.905Q347.637 579.253 347.96 578.617Q348.283 577.981 348.637 577.363Q348.992 576.744 349.378 576.144Q349.764 575.544 350.179 574.965Q350.595 574.385 351.04 573.828C356.964 566.381 365.006 563.253 374.215 562.179Z"/>
	<path transform="scale(0.672852 0.672852)" d="M430.251 563.028L439.196 562.973C447.695 581.567 455.803 600.723 463.245 619.764L454.319 619.759Q451.226 611.161 447.878 602.66L439.511 602.596L421.552 602.53C418.891 608.164 416.568 613.992 414.142 619.732L405.837 619.81C409.47 610.848 413.86 602.216 417.782 593.38C422.212 583.398 426.15 573.152 430.251 563.028Z"/>
	<path fill="transparent" transform="scale(0.672852 0.672852)" d="M434.54 571.297C438.883 578.942 441.772 588.137 445.018 596.328L434.75 596.338L424.213 596.206Q429.09 583.633 434.54 571.297Z"/>
	<path transform="scale(0.672852 0.672852)" d="M751.529 563.143C765.318 563.111 783.296 560.846 794.155 571.15C799.342 576.071 801.407 582.957 801.524 589.928C801.668 598.583 799.394 605.735 793.267 612.033C782.375 621.967 764.953 619.572 751.362 619.502L751.529 563.143Z"/>
	<path fill="transparent" transform="scale(0.672852 0.672852)" d="M759.452 569.466C768.608 569.33 779.26 568.486 786.814 574.685C791.067 578.175 792.905 583.14 793.413 588.493C794.08 595.533 792.208 601.652 787.635 607.049C779.003 614.182 769.973 613.719 759.512 613.633L759.452 569.466Z"/>
	<path fill="#EA8030" transform="scale(0.672852 0.672852)" d="M246.285 635.368L798.614 635.583C798.687 638.143 798.828 640.655 798.432 643.195L797.586 643.701L246.231 643.9L246.285 635.368Z"/>
	<path fill="#19426F" transform="scale(0.672852 0.672852)" d="M138.508 384.777C140.289 385.525 142.784 389.807 144.01 391.493C120.645 423.697 96.6372 455.36 72.8906 487.281C98.6084 487.789 124.453 487.16 150.182 487.098C159.508 473.092 167.978 458.539 177.41 444.625C179.626 446.803 181.615 449.288 183.651 451.637C175.631 463.369 168.442 475.649 160.008 487.081C171.372 487.268 182.764 487.119 194.131 487.122L191.338 492.304L66.625 492.188Q60.718 492.191 54.812 492.3C55.3422 494.355 55.886 496.582 56.7479 498.529C57.4149 500.036 58.2246 501.401 59.8399 502.014C63.66 503.466 75.7018 502.781 80.2317 502.823C91.7575 502.929 182.998 501.761 188.334 503.831C188.42 504.047 188.628 504.25 188.591 504.48C188.535 504.834 179.929 509.827 178.944 510.622C171.765 516.42 168.154 524.187 165.696 532.843Q158.257 533.691 150.786 534.192C123.623 535.99 81.9147 532.974 61.0134 514.363C52.606 506.877 49.4432 498.621 48.8171 487.539L62.4492 487.503C71.279 474.435 81.33 461.9 90.7162 449.203C106.596 427.721 122.32 406.022 138.508 384.777Z"/>
	<path fill="#EA8030" transform="scale(0.672852 0.672852)" d="M786.333 713.727C801.489 713.098 818.664 713.416 833.524 716.717C826.401 718.489 818.833 719.058 811.596 720.487Q784.618 725.854 757.892 732.364Q703.878 745.507 650.505 761.048C615.12 771.112 579.998 781.452 545.322 793.81C488.246 814.151 433.331 838.255 378.644 864.23L377.738 864.341C371.954 862.204 337.815 831.809 331.801 825.584C346.101 821.372 360.639 814.918 374.659 809.651Q412.303 795.382 450.387 782.333C463.401 777.85 476.556 773.962 489.678 769.83C585.313 739.711 685.804 716.805 786.333 713.727Z"/>
	<path fill="#EA8030" transform="scale(0.672852 0.672852)" d="M778.997 760.613L779.317 761.049C776.989 764.489 773.489 767.591 770.696 770.692C765.524 776.436 760.486 782.305 755.35 788.082C703.871 845.996 640.516 891.399 572.898 928.657C557.337 937.232 541.363 945.111 525.5 953.107C506.701 945.284 486.661 934.075 468.522 924.452C458.616 919.067 448.897 913.296 439.028 907.834C471.975 888.816 506.312 872.218 540.614 855.824Q601.071 826.599 663.441 801.715C684.406 793.179 705.417 784.543 726.746 776.959C735.037 774.011 743.398 771.09 751.83 768.569C760.869 765.867 770.041 763.583 778.997 760.613Z"/>
	<path fill="#19426F" transform="scale(0.672852 0.672852)" d="M885.701 543.868C887.244 551.39 887.092 559.947 887.302 567.627Q887.475 576.192 887.249 584.756Q887.023 593.32 886.399 601.864Q885.775 610.409 884.754 618.914Q883.733 627.42 882.317 635.87Q880.902 644.319 879.094 652.693Q877.287 661.067 875.092 669.348Q872.897 677.629 870.319 685.799Q867.741 693.969 864.786 702.01C818.873 827.297 711.698 913.114 597.446 974.253C573.738 986.939 549.316 998.213 524.945 1009.54C441.556 973.031 354.942 922.64 290.18 858.004C213.822 781.793 164.558 682.122 164.459 572.896Q164.454 571.741 164.469 570.586C164.512 567.007 164.731 548.221 166.523 546.47C167.705 548.545 167.405 557.762 167.566 560.659Q168.521 578.732 171.246 596.623C175.266 622.462 181.912 648.866 191.051 673.377C247.616 825.073 383.35 921.566 525.316 986.335C541.671 978.415 558.17 970.842 574.301 962.463C631.447 932.778 687.081 897.37 735.144 854.337C785.478 809.271 824.51 758.414 851.951 696.489C861.472 675.002 869.489 653.028 874.822 630.107C881.481 601.485 884.073 573.128 885.701 543.868Z"/>
	<path fill="#19426F" transform="scale(0.672852 0.672852)" d="M739.473 177.582C740.781 177.444 742.088 177.381 743.403 177.35C750.054 177.194 756.197 179.524 760.964 184.219C765.417 188.604 768.312 194.7 768.275 201.004C768.222 210.22 762.966 215.584 756.81 221.573C760.465 222.638 765.142 223.61 767.595 226.753C770.025 229.867 769.373 233.653 768.863 237.26L769.745 237.45C772.311 237.989 774.146 238.423 776.177 240.14C778.348 241.976 779.885 244.225 780.05 247.135C780.22 250.101 778.858 253.069 776.851 255.195C772.464 259.845 766.837 259.895 760.924 259.958C763.592 288.701 764.286 317.816 765.788 346.653L771.589 448.15C776.1 448.151 780.37 447.997 784.135 450.976C786.016 452.464 787.237 454.544 787.477 456.944C787.905 461.24 785.559 464.437 783.037 467.589C786.08 467.482 789.693 467.06 792.63 467.904C795.56 468.746 798.114 470.252 799.611 472.997C801.783 476.98 800.98 481.579 799.685 485.678C810.656 485.908 821.658 485.771 832.633 485.796C837.621 485.807 843.143 485.369 848.068 486.088C850.55 486.45 852.919 487.2 855.059 488.529C858.01 490.361 860.104 493.106 860.746 496.55C861.948 503.002 858.986 508.381 855.555 513.517C863.422 513.508 871.154 513.488 878.015 517.962C882.735 521.039 888.086 528.692 888.833 534.357C889.002 535.634 888.71 536.14 887.989 537.149C883.318 538.368 860.89 537.454 854.538 537.453L761.195 537.457L337.75 537.477L182.929 537.471C184.025 532.238 186.423 527.385 190.269 523.62C194.706 519.275 201.36 516.303 207.516 515.659C212.544 515.133 217.817 515.419 222.873 515.411L250.277 515.418L337.572 515.519L627.187 515.123C627.142 506.87 625.845 497.18 632.109 490.726Q632.865 489.945 633.724 489.279Q634.583 488.612 635.527 488.073Q636.471 487.534 637.482 487.133Q638.492 486.732 639.549 486.478C645.916 484.982 653.813 485.815 660.4 485.829L689.042 485.812C688.521 483.736 687.913 481.594 687.9 479.442C687.88 476.315 688.764 473.206 691.022 470.962C694.81 467.199 699.819 467.511 704.713 467.64C702.219 464.709 699.997 461.593 699.938 457.562Q699.929 457.145 699.961 456.728Q699.994 456.312 700.069 455.901Q700.144 455.49 700.259 455.089Q700.375 454.688 700.531 454.301Q700.687 453.913 700.881 453.543Q701.075 453.174 701.305 452.825Q701.536 452.477 701.8 452.154Q702.064 451.831 702.36 451.536C705.802 448.068 710.586 448.161 715.102 448.025Q719.325 353.861 724.921 259.772C721.604 259.757 718.193 259.923 715.039 258.736C711.437 257.38 708.221 254.705 706.77 251.072C705.799 248.64 705.825 246.087 707.005 243.731C709.076 239.599 712.911 238.183 717.009 236.916C716.97 233.824 716.574 230.773 718.036 227.921C720.167 223.763 725.867 222.786 729.971 221.468C725.144 217.594 721.257 213.674 719.516 207.502Q719.358 206.935 719.229 206.361Q719.099 205.787 718.999 205.208Q718.899 204.628 718.828 204.044Q718.757 203.46 718.716 202.873Q718.674 202.286 718.663 201.698Q718.651 201.11 718.669 200.522Q718.687 199.934 718.734 199.347Q718.782 198.761 718.859 198.178Q718.936 197.595 719.042 197.016Q719.148 196.437 719.284 195.865Q719.419 195.292 719.583 194.727Q719.747 194.162 719.939 193.606Q720.132 193.05 720.352 192.505Q720.572 191.959 720.819 191.425Q721.066 190.892 721.34 190.371Q721.614 189.85 721.914 189.344C725.884 182.686 732.204 179.367 739.473 177.582Z"/>
	<path fill="#19426F" transform="scale(0.672852 0.672852)" d="M361.889 12.6039C365.926 12.0431 369.732 12.2316 373.35 14.2967C379.742 17.944 382.016 24.5873 383.857 31.238C381.573 30.8971 379.038 30.3505 376.742 30.6719C373.681 31.1005 370.641 32.7389 368.794 35.2415Q368.467 35.6889 368.189 36.1685Q367.911 36.6481 367.686 37.1545Q367.461 37.6609 367.291 38.1884Q367.12 38.7158 367.007 39.2584Q366.894 39.8009 366.839 40.3524Q366.784 40.9039 366.788 41.4581Q366.792 42.0124 366.854 42.563Q366.917 43.1137 367.038 43.6546C367.953 47.8527 371.276 50.7506 375.07 52.4074C383.335 56.0173 403.304 58.8288 412.849 60.7978Q456.689 69.8452 500.391 79.5334C518.337 83.3881 537.002 86.4608 554.507 92.0179C558.961 93.4321 563.294 95.2123 567.252 97.7195C579.694 105.601 585.611 117.224 588.831 131.222Q589.333 129.617 589.918 128.041C594.028 117.127 603.517 108.796 613.912 104.037Q614.931 105.041 615.835 106.149C623.854 115.889 625.54 127.058 624.488 139.283C633.951 126.119 652.239 118.28 668.11 117.561C685.358 116.78 704.917 124.58 721.804 128.398C752.991 135.448 784.444 141.372 815.683 148.219C825.114 150.285 834.624 152.083 844.006 154.35C850.073 155.816 856.362 158.228 862.537 158.981C865.513 159.344 868.411 158.872 871.147 157.649C875.487 155.71 880.154 151.399 881.642 146.774C882.222 144.971 881.967 142.881 881.019 141.247C878.886 137.572 874.126 136.634 870.357 135.549C871.256 132.941 872.219 130.558 874.016 128.424C877.367 124.444 881.679 122.619 886.821 122.342C892.324 122.045 897.191 123.67 901.185 127.521C907.323 133.439 909.81 142.321 909.845 150.643C909.877 158.054 907.696 165.007 902.318 170.305C894.475 178.032 884.443 179.621 873.906 179.492C885.287 209.708 894.611 240.828 904.555 271.55Q925.907 335.694 945.449 400.413C953.069 400.398 968.846 399.191 975.209 400.368C976.606 400.626 976.69 400.731 977.458 401.843C978.12 405.969 977.057 410.849 975.567 414.723C971.528 425.221 962.11 431.97 952.153 436.309C912.774 453.469 847.485 451.197 807.854 435.496C800.532 432.216 792.514 428.784 786.779 423.003C780.581 416.755 779.351 408.83 779.452 400.451C787.651 400.194 795.867 400.319 804.069 400.352C806.613 392.165 808.534 383.712 810.707 375.414Q816.93 351.941 822.846 328.388L850.432 220.1C853.977 206.302 857.213 192.438 860.937 178.684C847.62 177.232 834.438 173.811 821.327 171.157Q788.614 164.679 756.007 157.689C741.133 154.394 723.729 148.897 708.72 148.866C695.818 148.84 683.135 153.061 672.082 159.57C667.038 162.54 662.037 165.948 656.527 167.999C650.318 170.311 643.378 170.749 636.852 171.68C618.941 174.234 604.45 181.518 591.565 194.213C586.093 178.823 576.513 166.829 562.984 157.802C557.383 154.064 551.359 150.533 546.573 145.753C538.694 137.885 533.441 127.435 526.212 118.93C518.788 110.194 507.885 103.505 497.256 99.4165C489.715 96.5153 481.146 95.3943 473.241 93.8048L436.75 86.3965L392.303 77.1208C384.161 75.4196 375.763 73.1002 367.485 72.3867C367.193 91.7172 369.561 111.098 369.554 130.444C366.567 130.059 363.552 130.046 360.544 129.962C360.487 123.004 360.372 115.992 360.993 109.056C358.021 115.9 355.151 122.762 353.085 129.945C348.863 130.005 344.63 129.909 340.407 129.878C343.905 117.875 347.7 105.87 350.253 93.6241C343.02 105.277 336.624 117.588 329.995 129.599C321.197 130.591 312.505 131.112 303.748 132.606L337.428 94.6087C344.361 86.6844 351.072 78.3299 358.551 70.9317Q356.229 69.8405 353.964 68.6348C346.132 64.3721 339.441 57.6644 337.005 48.8853C335.043 41.8147 336.329 33.9334 340.105 27.6777C344.934 19.6749 352.946 14.7363 361.889 12.6039Z"/>
	<path fill="transparent" transform="scale(0.672852 0.672852)" d="M785.209 405.017L874.793 405.186C907.056 405.017 939.463 404.344 971.709 405.206C971.509 408.593 970.697 411.594 969.65 414.788C965.16 416.405 936.017 415.683 929.09 415.727Q858.579 416.397 788.073 415.37C786.827 411.955 785.983 408.566 785.209 405.017Z"/>
	<path fill="transparent" transform="scale(0.672852 0.672852)" d="M863.23 201.371C863.91 206.503 863.03 212.428 862.786 217.614Q862.118 232.537 861.643 247.468C860.317 298.43 857.819 349.409 857.319 400.392L813.253 400.531C813.306 396.214 822.359 363.597 823.939 357.237L863.23 201.371Z"/>
	<path fill="transparent" transform="scale(0.672852 0.672852)" d="M871.196 197.421C874.552 200.506 932.854 385.112 937.371 400.464L930.145 400.468L865.141 400.512C865.974 358.386 867.16 316.129 868.811 274.027Q869.974 247.547 870.481 221.047C870.687 213.223 871.505 205.224 871.196 197.421Z"/>
	<path fill="#EA8030" transform="scale(0.672852 0.672852)" d="M338.644 142.206C338.848 142.186 339.051 142.16 339.255 142.146C387.567 138.83 445.023 156.472 482.095 187.707C518.767 218.604 544.596 263.825 548.413 312C552.063 358.058 535.994 401.598 506.104 436.308C479.506 467.195 441.736 489.661 402.356 499.779C388.256 503.402 373.622 505.353 359.125 506.446C349.678 506.715 340.122 506.885 330.693 506.129Q328.604 505.959 326.518 505.747Q324.433 505.535 322.352 505.282Q320.272 505.028 318.197 504.733Q316.121 504.439 314.052 504.103Q311.983 503.767 309.922 503.39Q307.86 503.012 305.806 502.594Q303.752 502.176 301.707 501.717Q299.661 501.258 297.626 500.759Q295.59 500.259 293.565 499.719Q291.54 499.179 289.525 498.599Q287.511 498.018 285.509 497.398Q283.507 496.778 281.518 496.118Q279.528 495.458 277.552 494.758Q275.576 494.059 273.615 493.32Q271.653 492.581 269.707 491.803Q267.76 491.026 265.83 490.209Q263.899 489.393 261.985 488.539Q260.071 487.684 258.175 486.792Q256.278 485.899 254.4 484.969Q252.521 484.039 250.662 483.072Q248.802 482.104 246.962 481.1Q245.123 480.096 243.303 479.055Q241.484 478.015 239.685 476.938Q237.887 475.861 236.11 474.749Q234.333 473.637 232.579 472.489Q230.825 471.342 229.094 470.16Q227.363 468.978 225.656 467.761Q223.949 466.545 222.267 465.295Q220.584 464.045 218.927 462.761Q217.27 461.478 215.639 460.162Q214.007 458.846 212.402 457.497Q210.798 456.149 209.22 454.769C175.285 425.619 150.784 384.305 147.459 339.101C143.732 288.426 159.904 245.596 192.947 207.371C229.055 165.6 284.928 146.059 338.644 142.206Z"/>
	<path fill="transparent" transform="scale(0.672852 0.672852)" d="M340.778 159.661C346.061 159.151 353.686 158.586 358.524 160.776C363.33 162.952 364.897 167.215 366.716 171.761C371.756 175.026 375.569 175.909 381.536 175.785C386.004 173.394 389.333 167.696 394.351 166.761C399.628 165.777 408.633 168.747 412.938 171.851C417.865 175.404 417.457 181.015 418.329 186.463C418.388 186.508 418.446 186.552 418.504 186.597C421.589 189.012 425.077 190.767 428.512 192.623C431.011 192.037 433.266 191.725 435.53 190.424C437.837 189.098 440.403 187.335 442.984 186.66C446.784 185.667 451.243 188.233 454.415 190.156C463.466 195.645 465.002 198.654 463.093 208.987C462.757 210.807 462.342 212.535 462.869 214.363C464.008 218.315 469.395 220.824 472.743 222.688C476.514 221.149 480.323 219.735 484.456 220.578C489.296 221.566 494.577 227.406 497.155 231.514C503.218 241.175 494.569 242.721 493.388 249.336C492.801 252.625 495.82 256.607 497.77 258.947C501.316 263.2 508.487 262.18 513.637 262.61C517.559 265.411 520.062 269.508 521.741 273.955C528.665 292.289 514.867 286.447 511.636 296.74C510.561 300.165 513.01 305.133 514.382 308.292C517.991 310.554 523.095 310.465 526.177 313.326C529.331 316.253 529.949 321.109 530.03 325.19C530.377 342.57 520.461 337.757 515.285 343.739C512.903 346.492 513.436 352.599 513.524 356.051C517.358 358.385 521.398 360.313 522.806 364.886C524.311 369.773 522.838 375.644 520.342 379.955C514.348 390.312 509.99 385.794 501.52 388.428C497.673 389.623 495.455 396.018 493.743 399.44C495.474 403.327 498.878 406.572 499.407 410.949C499.888 414.936 497.875 419.004 495.445 422.03C485.803 434.037 480.063 426.482 470.89 427.733C466.151 428.38 462.375 433.767 459.723 437.361C461.17 442.137 463.299 447.594 460.771 452.373C458.505 456.657 453.728 459.612 449.229 461.041C441.522 463.491 436.423 460.578 429.748 457.054L417.836 462.739C416.584 467.38 415.604 471.993 412.485 475.82C409.181 479.875 403.968 482.662 398.763 483.167C389.461 484.07 386.557 479.23 380.328 474.151L379.893 473.801C375.376 474.536 370.814 475.164 366.388 476.346C364.201 479.051 362.762 482.143 360.388 484.758C355.841 488.046 350.351 489.539 344.754 489.285C339.839 489.063 334.009 487.397 330.911 483.292C329.387 481.273 328.357 478.852 326.607 477.003C323.184 473.387 316.595 473.653 311.969 473.473C308.384 476.092 305.649 478.765 301.383 480.362C296.5 482.19 290.865 481.991 286.203 479.607C279.235 476.042 276.755 469.591 274.36 462.652C270.734 460.454 266.888 458.746 263.018 457.033C256.88 459.57 250.689 461.445 244.092 459.294C239.907 457.93 236.184 455.076 234.207 451.095C232.028 446.705 232.169 442.591 233.649 438.061C230.442 434.12 227.247 431.1 223.076 428.191C217.44 429.066 212.196 429.616 206.974 426.696Q206.189 426.254 205.451 425.737Q204.713 425.22 204.03 424.633Q203.347 424.046 202.725 423.394Q202.104 422.742 201.549 422.032Q200.995 421.322 200.513 420.561Q200.032 419.799 199.628 418.994Q199.223 418.189 198.901 417.348Q198.578 416.507 198.34 415.638C196.55 409.225 199.084 404.627 202.224 399.256C200.386 396.34 198.429 392.435 195.841 390.144C192.262 386.977 188.082 387.591 183.691 387.83C181.919 386.825 180.357 385.636 178.924 384.181C175.231 380.43 172.666 375.801 172.893 370.407C173.161 364.041 178.366 359.836 182.598 355.744C182.404 351.676 182.025 347.666 181.561 343.621C177.152 340.832 169.467 338.302 167.322 333.424C165.602 329.512 165.401 322.492 166.992 318.563C169.227 313.044 175.88 311.586 180.822 309.332C181.14 308.664 181.443 308.003 181.729 307.321C188.833 290.363 177.115 294.233 173.481 284.266C171.848 279.787 173.887 273.922 175.911 269.817C180.092 261.339 185.383 264.39 192.496 261.577C197.436 259.622 198.92 255.11 200.845 250.609C198.29 246.987 195.67 243.587 194.323 239.307C194.909 236.489 195.649 233.931 197.047 231.388C199.971 226.072 204.307 222.179 210.136 220.428Q214.346 221.792 218.591 223.042C219.406 222.837 220.17 222.598 220.951 222.284C227.057 219.831 229.903 215.858 232.434 210.05L230.067 203.062C232.48 197.794 236.336 194.152 241.217 191.143C251.239 184.963 255.16 190.691 264.796 192.871C265.015 192.92 265.236 192.964 265.456 193.01C267.712 191.938 270.023 190.802 272.151 189.495C278.373 185.672 277.385 182.772 279.103 176.47C279.752 174.09 281.802 172.581 283.858 171.44C286.913 169.743 290.449 168.656 293.867 167.98C307.004 165.383 305.764 173.182 317.278 176.662C319.209 176.157 321.162 175.672 323.065 175.068C329.142 173.14 330.022 169.173 332.89 164.191C334.56 161.289 337.725 160.403 340.778 159.661Z"/>
	<path fill="#19426F" transform="scale(0.672852 0.672852)" d="M347.939 171.132C348.5 171.228 349.06 171.436 349.606 171.6C350.591 173.372 354.195 260.113 354.312 268.3C356.121 268.135 357.975 268.423 359.779 268.604C368.091 244.525 379.839 221.63 390.5 198.555C393.044 193.05 395.187 185.247 398.994 180.558C399.665 179.732 399.848 179.751 400.836 179.68L401.427 180.476C399.186 189.471 396.242 198.378 393.589 207.262Q383.651 240.363 372.519 273.082C373.951 273.774 375.305 274.637 376.674 275.448C383.378 266.446 442.118 203.624 447.373 200.889L448.181 201.204C447.898 204.44 405.378 261.825 399.915 269.003C396.329 273.715 392.407 278.2 388.701 282.822C388.854 284.168 389.79 284.906 390.671 285.854L391.127 286.338C403.275 278.031 416.299 271.2 429.226 264.217L460.757 246.975C467.533 243.307 475.706 237.527 482.898 235.318C483.804 235.04 483.771 234.89 484.614 235.348C483.506 237.095 481.999 238.459 480.389 239.74C471.915 246.488 462.618 252.584 453.808 258.912C440.299 268.615 426.914 278.526 413.24 287.992C410.705 289.746 400.807 295.314 399.524 296.985C399.617 298.433 399.899 299.101 400.583 300.332C400.869 300.426 401.14 300.594 401.44 300.615C403.657 300.771 410.378 298.015 412.965 297.363C437.098 291.287 461.735 286.439 486.096 281.322C491.917 280.099 503.46 276.487 508.981 277.114L509.426 277.717C508.891 278.602 508.656 278.872 507.677 279.33C505.132 280.52 501.858 281.096 499.156 282.055L435.584 304.094C426.676 307.086 417.24 309.157 408.494 312.489C407.196 312.984 406.402 313.249 405.617 314.381C406.012 315.829 407.067 316.18 408.459 316.484C415.693 318.066 426.117 317.364 433.797 317.793C442.282 318.267 514.702 323.245 517.123 325.056L516.936 325.826C516.388 326.2 516.331 326.291 515.592 326.499C513.115 327.197 502.906 327.001 499.626 327.161Q468.81 328.707 437.974 329.805C427.873 330.083 417.052 329.316 407.069 330.67C406.083 331.465 405.838 332.661 405.441 333.816C405.911 334.74 406.871 334.962 407.822 335.294C415.456 337.962 423.302 340.156 430.97 342.775C439.561 345.711 506.653 369.189 509.041 372.359L508.682 372.98C500.156 372.676 490.534 369.151 482.174 367.261C454.986 361.113 427.85 355.128 401.109 347.206L398.903 351.261C411.763 358.726 480.446 407.957 487.124 417.162C478.967 414.649 469.728 408.354 462.206 404.055C447.329 395.553 432.063 387.522 417.359 378.747C408.756 373.612 400.458 367.073 391.499 362.674C391.328 362.59 391.155 362.51 390.983 362.428L391.056 361.856C391.093 362.764 391.191 362.283 390.54 363.235L390.217 362.275C389.108 363.16 388.899 363.252 388.471 364.583C389.194 367.418 394.886 373.545 396.935 376.255C409.148 392.41 420.45 409.007 431.74 425.814C436.494 432.889 441.896 439.809 446.158 447.178C446.792 448.275 447.298 448.957 446.976 450.231C446.807 450.216 446.635 450.218 446.468 450.186C445.528 450.005 444.819 449.509 444.155 448.847C441.405 446.1 438.936 442.923 436.313 440.043Q426.206 429.017 416.278 417.829C402.673 402.554 388.77 387.455 375.785 371.646C374.636 372.651 373.385 373.568 372.182 374.51C376.439 385.03 401.552 466.774 399.953 470.83L399.035 470.928C398.09 470.121 397.588 469.373 397.027 468.256C394.828 463.875 393.415 459.03 391.559 454.491C390.069 450.846 388.324 447.254 386.709 443.658C377.053 422.155 366.863 400.75 358.837 378.565L353.829 379.457C353.734 405.709 350.716 431.946 348.896 458.118C348.293 463.826 349.148 471.055 347.598 476.498C347.235 477.771 347.261 477.838 346.092 478.423C345.196 477.645 345.103 477.158 344.952 476.019C343.968 468.6 343.957 460.847 343.408 453.36Q341.484 429.898 340.438 406.381C340.276 401.745 340.556 382.509 339.376 379.702C339.218 379.644 339.066 379.571 338.904 379.527C336.271 378.804 334.771 381.337 333.95 383.382C333.045 385.638 332.499 388.032 331.546 390.274C323.887 408.301 315.466 425.861 307.248 443.624C303.906 450.849 301.181 458.494 297.619 465.586C296.85 467.117 296.027 468.87 294.567 469.827L294.104 468.911C294.061 460.954 300.477 444.668 302.944 436.488C309.129 415.972 315.098 395.424 321.873 375.086L317.728 372.585C308.159 387.135 291.689 403.154 279.763 416.264L259.838 438.34C257.285 441.181 254.892 444.354 252.211 447.05C251.133 448.134 250.723 448.542 249.184 448.536L248.685 447.945C248.698 446.74 249.163 445.856 249.757 444.833C253.899 437.71 260.324 430.031 265.104 423.05C278.463 403.54 291.69 384.038 305.923 365.146L302.744 361.766C297.486 365.972 291.764 369.706 286.066 373.285C274.663 380.447 262.775 386.704 251.231 393.627C240.253 400.21 229.558 407.53 218.438 413.824C216.759 414.774 214.904 415.912 212.996 416.26C212.082 415.688 211.998 415.845 211.619 414.763C212.692 413.029 271.815 367.593 278.807 362.465C283.903 358.726 289.783 355.638 294.576 351.584C294.273 350.778 294.025 350.013 293.488 349.328C293.365 349.171 292.646 348.342 292.594 348.323C291.472 347.906 275.931 353.091 273.442 353.767C252.333 359.499 230.845 363.935 209.502 368.706C203.437 370.061 193.595 373.741 187.568 373.173L187.238 372.612C191.407 368.485 207.437 364.252 213.736 361.97L267.714 342.17C274.044 339.83 280.718 337.968 286.93 335.416C287.911 335.013 288.401 334.645 288.991 333.728C289.006 332.993 289.13 333.046 288.702 332.469C288.028 331.559 286.346 331.089 285.28 330.953C282.222 330.563 278.755 330.833 275.653 330.76Q265.289 330.534 254.931 330.128Q219.21 328.767 183.521 326.716L183.211 327.518L183.074 326.347C181.952 326.272 179.983 326.49 179.141 325.849L179.544 324.85C182.38 323.092 252.623 319.073 262.249 318.459C269.265 318.011 281.561 318.197 288.016 316.295C288.125 315.835 288.356 314.971 288.339 314.514C288.295 313.381 287.692 312.688 286.728 312.2C285.418 311.537 283.436 311.275 281.999 310.806C274.921 308.496 267.706 306.573 260.591 304.372C241.724 298.534 223.188 291.579 204.561 285.032C201.078 283.807 189.971 280.778 187.496 279.277C187.127 279.053 186.966 278.595 186.702 278.254L186.874 277.08L187.558 276.644C193.52 277.3 199.436 279.136 205.281 280.471C212.973 282.227 220.734 283.814 228.45 285.477C243.464 288.713 258.507 291.686 273.493 295.108C279.994 296.593 286.6 297.906 292.977 299.866L295.745 296.047C274.037 282.945 253.809 267.298 233.314 252.402C226.178 247.215 213.747 239.777 208.451 233.386C218.194 236.416 227.45 243.058 236.445 247.878C259.156 260.049 281.929 272.005 304.215 284.95L307.382 282.437C287.404 257.667 268.806 232.064 250.219 206.247C249.314 204.988 247.798 203.372 248.055 201.839L248.959 201.74C249.53 201.897 250.064 202.007 250.529 202.404C252.289 203.908 253.775 205.975 255.418 207.643Q263.475 215.682 271.358 223.892C282.192 235.058 293.462 245.837 304.033 257.255C309.128 262.759 314.091 268.309 318.605 274.306L322.903 271.818C314.215 250.057 308.327 227.692 301.62 205.29C299.51 198.244 295.186 188.551 294.975 181.488L295.64 180.984C296.759 181.547 297.168 182.165 297.739 183.253C300.69 188.88 302.893 195.033 305.62 200.789Q316.198 222.984 326.491 245.313C328.428 249.597 334.546 265.576 337.178 267.801C337.538 267.792 338.06 267.801 338.396 267.678C338.464 267.653 339.5 267.06 339.58 266.924C340.776 264.902 340.748 251.596 340.927 248.741Q342.562 224.441 344.579 200.169C345.252 191.582 345.358 182.556 346.77 174.073C346.966 172.896 347.291 172.124 347.939 171.132Z"/>
</svg>
